<?xml version="1.0" standalone="no"?>
<!DOCTYPE svg PUBLIC "-//W3C//DTD SVG 20010904//EN"
 "http://www.w3.org/TR/2001/REC-SVG-20010904/DTD/svg10.dtd">
<svg version="1.0" xmlns="http://www.w3.org/2000/svg"
 width="300.000000pt" height="300.000000pt" viewBox="0 0 300.000000 300.000000"
 preserveAspectRatio="xMidYMid meet">

<g transform="translate(0.000000,300.000000) scale(0.100000,-0.100000)"
fill="#000000" stroke="none">
<path d="M890 2984 c0 -9 7 -14 17 -12 25 5 28 28 4 28 -12 0 -21 -6 -21 -16z"/>
<path d="M2758 2683 c6 -2 18 -2 25 0 6 3 1 5 -13 5 -14 0 -19 -2 -12 -5z"/>
<path d="M2928 2683 c6 -2 18 -2 25 0 6 3 1 5 -13 5 -14 0 -19 -2 -12 -5z"/>
<path d="M2962 2328 c-19 -19 -14 -28 13 -28 18 0 25 5 25 20 0 22 -20 26 -38
8z"/>
<path d="M2890 2272 c0 -14 11 -21 26 -15 8 3 11 9 8 14 -7 11 -34 12 -34 1z"/>
<path d="M2968 2223 c6 -2 18 -2 25 0 6 3 1 5 -13 5 -14 0 -19 -2 -12 -5z"/>
<path d="M265 2190 c-3 -5 -1 -10 4 -10 6 0 11 5 11 10 0 6 -2 10 -4 10 -3 0
-8 -4 -11 -10z"/>
<path d="M1720 2071 c0 -6 5 -13 10 -16 6 -3 10 1 10 9 0 9 -4 16 -10 16 -5 0
-10 -4 -10 -9z"/>
<path d="M0 2030 c0 -5 7 -10 16 -10 8 0 12 5 9 10 -3 6 -10 10 -16 10 -5 0
-9 -4 -9 -10z"/>
<path d="M2221 1938 c0 -13 4 -32 9 -43 7 -16 9 -13 9 17 1 20 -3 40 -9 43 -6
3 -10 -4 -9 -17z"/>
<path d="M2305 1810 c3 -5 8 -10 11 -10 2 0 4 5 4 10 0 6 -5 10 -11 10 -5 0
-7 -4 -4 -10z"/>
<path d="M1015 1780 c-4 -6 -3 -16 3 -22 13 -13 23 4 13 21 -7 10 -10 10 -16
1z"/>
<path d="M1050 1731 c0 -6 5 -13 10 -16 6 -3 10 1 10 9 0 9 -4 16 -10 16 -5 0
-10 -4 -10 -9z"/>
<path d="M2450 1695 c-18 -10 -20 -14 -8 -15 9 0 23 -8 30 -18 7 -11 24 -25
38 -32 14 -7 30 -20 36 -28 6 -8 16 -12 23 -8 8 6 5 14 -12 30 -13 12 -26 27
-28 32 -2 5 -15 19 -29 31 -23 19 -27 20 -50 8z"/>
<path d="M1995 1599 c-38 -26 -88 -65 -109 -88 l-39 -40 23 -9 c24 -9 80 5 80
20 0 26 125 98 170 98 12 0 34 -7 48 -15 15 -8 54 -23 87 -34 55 -19 61 -19
73 -4 18 25 15 36 -18 55 -18 10 -30 25 -30 37 0 28 -10 31 -55 15 -50 -17
-102 -18 -135 -1 -23 11 -31 8 -95 -34z"/>
<path d="M143 1605 c0 -22 2 -30 4 -17 2 12 2 30 0 40 -3 9 -5 -1 -4 -23z"/>
<path d="M144 1455 c0 -60 1 -84 3 -52 2 32 2 81 0 110 -2 29 -3 3 -3 -58z"/>
<path d="M1225 1480 c-3 -5 -1 -10 4 -10 6 0 11 5 11 10 0 6 -2 10 -4 10 -3 0
-8 -4 -11 -10z"/>
<path d="M2893 1435 c0 -27 2 -38 4 -22 2 15 2 37 0 50 -2 12 -4 0 -4 -28z"/>
<path d="M259 1293 c-3 -52 11 -97 24 -76 8 13 -4 93 -14 93 -5 0 -9 -8 -10
-17z"/>
<path d="M1050 1298 c-25 -4 -56 -16 -70 -26 -58 -43 -89 -124 -57 -151 10 -8
24 3 63 51 27 35 60 68 74 75 16 9 59 13 118 12 51 -1 95 1 98 4 3 3 -5 12
-18 20 -28 18 -146 26 -208 15z"/>
<path d="M305 1190 c-3 -5 1 -10 10 -10 9 0 13 5 10 10 -3 6 -8 10 -10 10 -2
0 -7 -4 -10 -10z"/>
<path d="M2732 1169 c-9 -18 -25 -40 -34 -50 -22 -23 -7 -33 36 -25 43 8 68
37 64 73 -5 43 -43 44 -66 2z"/>
<path d="M345 1150 c-3 -5 5 -12 19 -16 14 -3 27 -13 29 -22 4 -15 5 -15 12 1
4 9 5 24 1 32 -6 17 -51 21 -61 5z"/>
<path d="M640 1110 c0 -11 5 -20 11 -20 14 0 50 -37 67 -70 7 -14 26 -43 42
-65 16 -22 29 -48 30 -58 0 -25 -27 -32 -49 -13 -25 23 -61 21 -61 -3 0 -16
-8 -21 -42 -24 l-43 -4 48 -1 c26 -1 65 -11 87 -22 22 -11 47 -20 56 -20 31 0
76 -35 105 -84 33 -53 32 -72 -3 -79 -13 -3 -3 -4 21 -4 30 1 47 -4 56 -16 20
-28 24 -20 24 49 -1 63 -3 68 -47 122 -25 31 -54 64 -63 72 -10 8 -27 43 -39
76 -23 66 -69 118 -130 149 -73 37 -70 37 -70 15z"/>
<path d="M470 976 c0 -49 46 -63 73 -22 15 23 15 24 -6 30 -38 10 -67 7 -67
-8z"/>
<path d="M512 691 c2 -7 7 -12 11 -12 12 1 9 15 -3 20 -7 2 -11 -2 -8 -8z"/>
<path d="M1373 648 c-23 -24 -26 -36 -24 -81 1 -25 4 -28 28 -25 24 3 29 9 34
41 3 21 14 44 24 51 10 7 15 18 11 24 -12 19 -51 14 -73 -10z"/>
<path d="M555 650 c-3 -6 -4 -18 -1 -28 4 -12 -3 -26 -19 -40 -22 -19 -25 -30
-25 -89 0 -38 4 -74 9 -81 14 -23 46 -10 49 21 2 15 13 32 24 38 17 9 19 18
15 51 -3 23 -1 49 6 58 9 15 5 24 -21 49 -17 18 -33 27 -37 21z"/>
<path d="M683 563 c9 -2 23 -2 30 0 6 3 -1 5 -18 5 -16 0 -22 -2 -12 -5z"/>
<path d="M838 520 c13 -6 31 -6 45 0 18 7 14 9 -23 9 -37 0 -41 -2 -22 -9z"/>
<path d="M1057 498 c-9 -32 44 -94 108 -128 31 -16 63 -30 69 -30 7 0 23 -9
35 -19 12 -11 45 -25 72 -31 64 -16 80 -42 55 -93 -9 -19 -23 -37 -31 -41 -8
-3 -15 -13 -15 -21 0 -9 4 -14 8 -11 5 3 35 9 68 15 46 7 69 6 104 -6 70 -24
186 -14 241 21 62 39 86 73 70 98 -14 23 -16 20 27 42 19 10 31 20 28 23 -3 3
-126 6 -273 8 -247 2 -272 4 -322 24 -29 12 -70 37 -90 56 -20 19 -61 52 -93
74 -52 36 -57 38 -61 19z m458 -227 c7 -12 -29 -33 -39 -24 -3 3 -6 12 -6 20
0 15 36 18 45 4z m15 -86 c0 -8 -4 -15 -10 -15 -5 0 -10 7 -10 15 0 8 5 15 10
15 6 0 10 -7 10 -15z"/>
<path d="M2888 416 c-6 -31 6 -55 16 -31 9 24 7 55 -3 55 -5 0 -11 -11 -13
-24z"/>
<path d="M2852 310 c0 -14 2 -19 5 -12 2 6 2 18 0 25 -3 6 -5 1 -5 -13z"/>
<path d="M930 176 c0 -73 -3 -98 -14 -102 -11 -4 -12 -12 -3 -40 6 -19 15 -34
21 -34 13 0 16 254 4 266 -5 4 -8 -36 -8 -90z"/>
<path d="M523 85 c0 -38 2 -53 4 -32 2 20 2 52 0 70 -2 17 -4 1 -4 -38z"/>
<path d="M2430 16 c0 -9 5 -16 10 -16 6 0 10 4 10 9 0 6 -4 13 -10 16 -5 3
-10 -1 -10 -9z"/>
</g>
</svg>
